<svg width="45" height="45" viewBox="0 0 45 45" fill="none" xmlns="http://www.w3.org/2000/svg">
<path fill-rule="evenodd" clip-rule="evenodd" d="M18.2812 4.6875C18.2812 4.43886 18.1825 4.2004 18.0067 4.02459C17.8308 3.84877 17.5924 3.75 17.3438 3.75H15C14.7514 3.75 14.5129 3.84877 14.3371 4.02459C14.1613 4.2004 14.0625 4.43886 14.0625 4.6875V16.1081C14.0624 16.202 14.0426 16.2949 14.0043 16.3806C13.966 16.4664 13.9102 16.5432 13.8403 16.6059C12.4349 17.8709 11.3111 19.4173 10.5419 21.1446C9.77262 22.8719 9.37506 24.7416 9.375 26.6325V39.18C9.375 40.3237 10.3022 41.25 11.445 41.25H20.2912C20.877 41.25 21.4389 41.0173 21.8531 40.6031C22.2673 40.1889 22.5 39.627 22.5 39.0413V26.3091C22.5 22.6697 21.0544 19.1794 18.4809 16.6059C18.3531 16.4781 18.2813 16.3048 18.2812 16.1241V4.6875ZM11.25 27.1875H20.625V34.6875H11.25V27.1875ZM33.4116 22.5H26.5875L27.1875 16.875H32.8125L33.4116 22.5ZM25.5 15H34.5L35.4497 23.94C35.5968 25.3234 35.2125 26.711 34.3747 27.8216C33.5369 28.9323 32.3081 29.6828 30.9375 29.9212V39.375H33.75C33.9986 39.375 34.2371 39.4738 34.4129 39.6496C34.5887 39.8254 34.6875 40.0639 34.6875 40.3125C34.6875 40.5611 34.5887 40.7996 34.4129 40.9754C34.2371 41.1512 33.9986 41.25 33.75 41.25H26.25C26.0014 41.25 25.7629 41.1512 25.5871 40.9754C25.4113 40.7996 25.3125 40.5611 25.3125 40.3125C25.3125 40.0639 25.4113 39.8254 25.5871 39.6496C25.7629 39.4738 26.0014 39.375 26.25 39.375H29.0625V29.9203C27.6921 29.6819 26.4635 28.9315 25.6256 27.821C24.7878 26.7106 24.4034 25.3233 24.5503 23.94L25.5 15Z" fill="black"/>
</svg>
