<svg width="49" height="44" viewBox="0 0 49 44" fill="none" xmlns="http://www.w3.org/2000/svg">
<path d="M14.1782 10.1197C16.1359 10.1197 17.7231 8.53265 17.7231 6.57488C17.7231 4.61711 16.1359 3.03 14.1782 3.03C12.2204 3.03 10.6334 4.61711 10.6334 6.57488C10.6334 8.53265 12.2204 10.1197 14.1782 10.1197Z" stroke="black" stroke-width="3" stroke-miterlimit="10" stroke-linecap="round" stroke-linejoin="round"/>
<path d="M17.306 3.23855C18.5571 1.7789 20.8509 1.57039 22.3105 2.82151C23.7702 4.07264 23.9786 6.36639 22.7275 7.82603C21.4764 9.28568 19.1827 9.49416 17.723 8.24303" stroke="black" stroke-width="3" stroke-miterlimit="10" stroke-linecap="round" stroke-linejoin="round"/>
<path d="M10.4248 6.36635C6.87998 8.24304 3.54362 11.3709 1.66693 15.9583" stroke="black" stroke-width="3" stroke-miterlimit="10" stroke-linecap="round" stroke-linejoin="round"/>
<path d="M47.3329 25.3417L28.566 3.03C28.566 3.03 26.0637 2.82147 22.7274 3.03" stroke="black" stroke-width="3" stroke-miterlimit="10" stroke-linecap="round" stroke-linejoin="round"/>
<path d="M22.7276 7.82599C24.1872 7.61747 27.1065 8.66002 27.9406 10.1197C29.6087 12.8304 27.9406 15.5412 25.0213 15.9583C22.519 16.1668 17.7231 15.5412 17.9316 19.7116C17.9316 22.6309 17.9316 33.474 17.9316 33.474L29.4002 36.1848C29.4002 36.1848 35.6559 39.3126 21.2679 41.3978C6.88002 43.483 -0.0011654 39.7296 2.50108 36.6018C5.00333 33.474 13.1356 32.4314 13.1356 32.4314V18.669C13.1356 18.669 4.58625 13.456 8.1311 8.24299" stroke="black" stroke-width="3" stroke-miterlimit="10" stroke-linecap="round" stroke-linejoin="round"/>
<path d="M17.7231 33.474L47.3331 39.3126V25.3417L17.7231 19.5031" stroke="black" stroke-width="3" stroke-miterlimit="10" stroke-linecap="round" stroke-linejoin="round"/>
<path d="M12.9271 18.4605L1.66693 15.9583V29.5122L12.9271 32.2229" stroke="black" stroke-width="3" stroke-miterlimit="10" stroke-linecap="round" stroke-linejoin="round"/>
</svg>
