<svg width="33" height="46" viewBox="0 0 33 46" fill="none" xmlns="http://www.w3.org/2000/svg">
<path d="M31.1666 37.3L27.7555 44.3397C27.5613 44.7407 27.1213 45 26.6353 45H6.3647C5.87862 45 5.43862 44.7407 5.24441 44.3397L1.83331 37.3" stroke="black" stroke-width="2" stroke-linecap="round" stroke-linejoin="round"/>
<path d="M1.83331 8.7L5.24441 1.6603C5.43862 1.25927 5.87862 1 6.3647 1H26.6353C27.1213 1 27.5613 1.25927 27.7555 1.6603L31.1666 8.7" stroke="black" stroke-width="2" stroke-linecap="round" stroke-linejoin="round"/>
<path d="M1.83331 9.8C1.83331 8.58494 2.92769 7.6 4.27776 7.6H28.7222C30.0723 7.6 31.1666 8.58494 31.1666 9.8V36.2C31.1666 37.4151 30.0723 38.4 28.7222 38.4H4.27776C2.92769 38.4 1.83331 37.4151 1.83331 36.2V9.8Z" fill="black" fill-opacity="0.35" stroke="black" stroke-width="2"/>
<path d="M3.05554 21.35L10.873 20.2391C13.3284 19.8902 15.5781 18.7978 17.2502 17.1423C19.48 14.9348 22.7033 13.7584 26.0117 13.9444L30.5555 14.2" stroke="black" stroke-width="2" stroke-linecap="round" stroke-linejoin="round"/>
<path d="M2.4444 32.35L9.2314 32.0724C13.3565 31.9036 17.0749 29.7837 19.007 26.4992C20.5257 23.9174 23.1713 22.0222 26.3077 21.2695L30.5555 20.25" stroke="black" stroke-width="2" stroke-linecap="round" stroke-linejoin="round"/>
<path d="M31.1666 9.8V31.8" stroke="black" stroke-width="2" stroke-linecap="round" stroke-linejoin="round"/>
<path d="M1.83331 14.2V36.2" stroke="black" stroke-width="2" stroke-linecap="round" stroke-linejoin="round"/>
</svg>
