<svg width="43" height="45" viewBox="0 0 43 45" fill="none" xmlns="http://www.w3.org/2000/svg">
<path d="M35.9646 28.9286H26.3218V25.7143H35.9646V28.9286ZM42.3932 41.7857H32.7503V38.5714H42.3932V41.7857ZM39.1789 35.3571H29.5361V32.1429H39.1789V35.3571Z" fill="black"/>
<path d="M21.5052 28.9286C21.4938 27.5725 21.1322 26.2424 20.4552 25.0673C19.7783 23.8922 18.809 22.912 17.6416 22.222L29.5361 1.60714L26.7557 0L14.5784 21.0954C13.0839 20.7615 11.5296 20.8077 10.0575 21.2297C8.58549 21.6516 7.24276 22.436 6.15213 23.5109C0.134989 29.3143 0.601061 42.8818 0.623561 43.4571C0.640174 43.8721 0.816804 44.2646 1.11642 44.5522C1.41604 44.8399 1.81537 45.0003 2.2307 45H26.3234C26.6607 45 26.9895 44.8939 27.2631 44.6966C27.5367 44.4994 27.7414 44.2211 27.8481 43.9011C27.9547 43.5811 27.958 43.2356 27.8574 42.9137C27.7568 42.5917 27.5575 42.3095 27.2877 42.1071C21.5984 37.8386 21.5052 29.0154 21.5052 28.9286ZM13.3521 24.1023C14.6384 24.1165 15.8698 24.626 16.79 25.5249C17.7101 26.4238 18.2483 27.6429 18.2925 28.9286C18.2925 28.9896 18.2957 29.2629 18.3198 29.6823L8.83767 25.4652C9.46227 24.9501 10.183 24.5644 10.9581 24.3304C11.7331 24.0965 12.5469 24.0189 13.3521 24.1023ZM19.0093 41.7857C17.7247 40.4777 16.9058 38.7835 16.6789 36.9643H13.4646C13.5797 38.6747 14.114 40.3306 15.0203 41.7857H11.4477C10.7867 39.7 10.3846 37.541 10.2503 35.3571H7.03606C7.1397 37.5344 7.4984 39.692 8.10481 41.7857H3.82177C3.8716 38.835 4.28785 32.3164 6.71945 28.0398L18.8261 33.4238C19.4077 36.4441 20.6479 39.2991 22.4582 41.7857H19.0093Z" fill="black"/>
</svg>
