<svg width="45" height="45" viewBox="0 0 45 45" fill="none" xmlns="http://www.w3.org/2000/svg">
<g clip-path="url(#clip0_18_850)">
<path d="M16.4506 2.47742L15.8804 1.90722C15.5882 1.61394 15.2409 1.38123 14.8585 1.22245C14.4761 1.06367 14.0661 0.981934 13.6521 0.981934C13.238 0.981934 12.828 1.06367 12.4456 1.22245C12.0632 1.38123 11.7159 1.61394 11.4237 1.90722L4.13559 9.17565L1.90722 11.404C1.61394 11.6963 1.38123 12.0436 1.22245 12.426C1.06367 12.8084 0.981934 13.2183 0.981934 13.6324C0.981934 14.0464 1.06367 14.4564 1.22245 14.8388C1.38123 15.2212 1.61394 15.5685 1.90722 15.8608L29.113 43.0928C29.7053 43.6839 30.5079 44.0159 31.3447 44.0159C32.1815 44.0159 32.9841 43.6839 33.5763 43.0928L35.8047 40.8644L43.0928 33.5763C43.6839 32.9841 44.0159 32.1815 44.0159 31.3447C44.0159 30.5079 43.6839 29.7053 43.0928 29.113L42.5226 28.5428L33.0061 38.0593L6.93417 11.9939L16.4506 2.47742Z" stroke="black" stroke-width="3" stroke-linecap="round" stroke-linejoin="round"/>
<path d="M10.0146 15.0743L19.531 5.55127" stroke="black" stroke-width="3" stroke-linecap="round" stroke-linejoin="round"/>
<path d="M12.859 17.9187L22.3755 8.40228" stroke="black" stroke-width="3" stroke-linecap="round" stroke-linejoin="round"/>
<path d="M15.7035 20.7632L25.2199 11.2467" stroke="black" stroke-width="3" stroke-linecap="round" stroke-linejoin="round"/>
<path d="M18.5479 23.6076L28.0644 14.0912" stroke="black" stroke-width="3" stroke-linecap="round" stroke-linejoin="round"/>
<path d="M21.3923 26.4521L30.9088 16.9356" stroke="black" stroke-width="3" stroke-linecap="round" stroke-linejoin="round"/>
<path d="M24.2368 29.2965L33.7533 19.7801" stroke="black" stroke-width="3" stroke-linecap="round" stroke-linejoin="round"/>
<path d="M27.0812 32.141L36.5977 22.6245" stroke="black" stroke-width="3" stroke-linecap="round" stroke-linejoin="round"/>
<path d="M29.9257 34.9854L39.4422 25.469" stroke="black" stroke-width="3" stroke-linecap="round" stroke-linejoin="round"/>
</g>
<defs>
<clipPath id="clip0_18_850">
<rect width="45" height="45" fill="white"/>
</clipPath>
</defs>
</svg>
