<svg width="31" height="49" viewBox="0 0 31 49" fill="none" xmlns="http://www.w3.org/2000/svg">
<path d="M2 19.5207C2 19.0991 2.1185 18.6858 2.342 18.3282L7.625 9.875H23.375L28.658 18.3282C28.8815 18.6858 29 19.0991 29 19.5207V44.75C29 45.3467 28.7629 45.919 28.341 46.341C27.919 46.7629 27.3467 47 26.75 47H4.25C3.65326 47 3.08097 46.7629 2.65901 46.341C2.23705 45.919 2 45.3467 2 44.75V19.5207Z" stroke="black" stroke-width="4" stroke-linecap="round" stroke-linejoin="round"/>
<path d="M9.875 34.625V24.5L15.5 31.25L21.125 24.5V34.625M7.625 2H23.375V9.875H7.625V2Z" stroke="black" stroke-width="4" stroke-linecap="round" stroke-linejoin="round"/>
</svg>
