<svg width="45" height="45" viewBox="0 0 45 45" fill="none" xmlns="http://www.w3.org/2000/svg">
<path d="M32.2273 12.2751V12.7751H32.7273H41.4205C43.1205 12.7751 44.5 14.1529 44.5 15.8542V29.1478C44.5 29.9644 44.1756 30.7476 43.598 31.325C43.0205 31.9025 42.2372 32.2269 41.4205 32.2269H32.7273H32.2273V32.7269V41.4209C32.2273 42.2375 31.9028 43.0207 31.3253 43.5981C30.7478 44.1756 29.9645 44.5 29.1477 44.5H15.8523C15.0355 44.5 14.2522 44.1756 13.6747 43.5981C13.0972 43.0207 12.7727 42.2375 12.7727 41.4209V32.7269V32.2269H12.2727H3.57955C2.76278 32.2269 1.97948 31.9025 1.40195 31.325C0.824435 30.7476 0.5 29.9644 0.5 29.1478V15.8542C0.5 14.1511 1.87934 12.7751 3.57955 12.7751H12.2727H12.7727V12.2751V3.57906C12.7727 1.87962 14.1524 0.5 15.8523 0.5H29.1477C30.8476 0.5 32.2273 1.87962 32.2273 3.57906V12.2751ZM15.8523 2.56776C15.5841 2.56776 15.3268 2.67429 15.1372 2.86394C14.9475 3.05359 14.8409 3.31083 14.8409 3.57906V13.809C14.8409 14.0832 14.732 14.3462 14.5381 14.5401C14.3441 14.734 14.0811 14.8429 13.8068 14.8429H3.57955C3.31134 14.8429 3.0541 14.9494 2.86443 15.1391C2.67475 15.3287 2.56818 15.586 2.56818 15.8542V29.1478C2.56818 29.7063 3.0212 30.1591 3.57955 30.1591H13.8068C14.0811 30.1591 14.3441 30.2681 14.5381 30.462C14.732 30.6559 14.8409 30.9188 14.8409 31.193V41.4209C14.8409 41.9794 15.2939 42.4322 15.8523 42.4322H29.1477C29.4159 42.4322 29.6732 42.3257 29.8628 42.1361C30.0525 41.9464 30.1591 41.6892 30.1591 41.4209V31.193C30.1591 30.9188 30.268 30.6559 30.4619 30.462C30.6559 30.2681 30.9189 30.1591 31.1932 30.1591H41.4205C41.6887 30.1591 41.9459 30.0526 42.1356 29.863C42.3252 29.6733 42.4318 29.4161 42.4318 29.1478V15.8542C42.4318 15.586 42.3252 15.3287 42.1356 15.1391C41.9459 14.9494 41.6887 14.8429 41.4205 14.8429H31.1932C30.9189 14.8429 30.6559 14.734 30.4619 14.5401C30.268 14.3462 30.1591 14.0832 30.1591 13.809V3.57906C30.1591 3.31083 30.0525 3.05359 29.8628 2.86394C29.6732 2.67429 29.4159 2.56776 29.1477 2.56776H15.8523Z" fill="black" stroke="black"/>
</svg>
