<svg width="45" height="45" viewBox="0 0 45 45" fill="none" xmlns="http://www.w3.org/2000/svg">
<path d="M15.75 9.5H16.25V9V5.6925V5.12891L15.6904 5.19606L13.4404 5.46606L13 5.51891V5.9625V9V9.5H13.5H15.75ZM15.75 23H16.25V22.5V11.25V10.75H15.75H13.5H13V11.25V22.5V23H13.5H15.75ZM9 10.75H8.5V11.25V22.5V23H9H11.25H11.75V22.5V11.25V10.75H11.25H9ZM8.94043 5.98356L8.5 6.03641V6.48V9V9.5H9H11.25H11.75V9V6.21V5.64641L11.1904 5.71356L8.94043 5.98356ZM6.75 23H7.25V22.5V4.94462L44.5 0.562272V1.80531L17.9417 4.92592L17.5 4.97781V5.4225V9V9.5H18H44.5V10.75H18H17.5V11.25V22.5V23H18H44.4931C44.2751 30.8526 38.938 37.5963 31.3168 40.5973L31 40.722V41.0625V44.5H14V41.0625V40.722L13.6832 40.5973C6.06198 37.5963 0.724867 30.8526 0.506931 23H6.75Z" fill="black" stroke="black"/>
</svg>
