<svg width="45" height="45" viewBox="0 0 45 45" fill="none" xmlns="http://www.w3.org/2000/svg">
<g clip-path="url(#clip0_18_700)">
<path d="M38.2125 7.03413C39.7931 17.3721 39.7931 27.6278 38.2125 37.9658C28.8213 39.6919 16.1788 39.6919 6.78752 37.9658C5.20698 27.6278 5.20698 17.3721 6.78752 7.03413C16.1788 5.30798 28.8213 5.30798 38.2125 7.03413Z" stroke="black" stroke-width="2"/>
<path d="M32.053 42.6863L31.3 43.4393L30.547 42.6863L30.0167 42.1559L29.4863 42.6863L28.7534 43.4193L28.0913 42.7063L27.5617 42.136L27.0114 42.6863L26.2584 43.4393L25.5054 42.6863L24.9551 42.1359L24.4255 42.7063L23.7634 43.4193L23.0304 42.6863L22.5001 42.1559L21.9697 42.6863L21.2367 43.4193L20.5746 42.7063L20.045 42.1359L19.4947 42.6863L18.7417 43.4393L17.9887 42.6863L17.4384 42.136L16.9088 42.7063L16.2467 43.4193L15.5137 42.6863L14.9834 42.1559L14.453 42.6863L13.7 43.4393L12.9471 42.6863L12.3967 42.1359L11.8671 42.7063L11.205 43.4193L10.4721 42.6863L9.94176 42.1559L9.41141 42.6863L8.67838 43.4193L8.01628 42.7063L7.48667 42.1359L6.93633 42.6863L6.18338 43.4393L5.72376 42.9797L6.50593 39.5666H38.4941L39.2763 42.9797L38.8167 43.4393L38.0637 42.6863L37.5134 42.1359L36.9838 42.7063L36.3217 43.4193L35.5888 42.6863L35.0584 42.1559L34.5281 42.6863L33.795 43.4193L33.1329 42.7063L32.6033 42.1359L32.053 42.6863Z" stroke="black" stroke-width="1.5"/>
<path d="M8.01628 2.29371L8.67838 1.58067L9.41141 2.3137L9.94176 2.84405L10.4721 2.31368L11.205 1.58069L11.8671 2.29371L12.3967 2.86406L12.9471 2.31368L13.7 1.56068L14.453 2.3137L14.9834 2.84405L15.5137 2.31368L16.2467 1.58069L16.9088 2.29371L17.4384 2.86404L17.9887 2.3137L18.7417 1.56068L19.4947 2.31368L20.045 2.86406L20.5746 2.29371L21.2367 1.58067L21.9697 2.3137L22.5001 2.84405L23.0304 2.31368L23.7634 1.58069L24.4255 2.29371L24.9551 2.86406L25.5054 2.31368L26.2584 1.56068L27.0114 2.3137L27.5617 2.86404L28.0913 2.29371L28.7534 1.58069L29.4863 2.31368L30.0167 2.84405L30.547 2.3137L31.3 1.56068L32.053 2.31368L32.6033 2.86406L33.1329 2.29371L33.795 1.58067L34.5281 2.3137L35.0584 2.84405L35.5888 2.31368L36.3217 1.58069L36.9838 2.29371L37.5134 2.86406L38.0637 2.31368L38.8167 1.56068L39.2763 2.02029L38.4941 5.43336H6.50593L5.72376 2.02029L6.18338 1.56068L6.93633 2.31368L7.48667 2.86406L8.01628 2.29371Z" stroke="black" stroke-width="1.5"/>
<path d="M34.3154 16.216C32.0337 11.9252 24.8938 11.2599 18.3681 14.7301C11.8424 18.2002 8.40203 24.4918 10.6838 28.7826C12.9655 33.0735 20.1054 33.7388 26.6311 30.2686C33.1568 26.7984 36.5972 20.5069 34.3154 16.216Z" fill="black"/>
<path d="M34.05 31.9916C33.995 31.9916 33.9631 31.9726 33.9452 31.9548C33.9273 31.9369 33.9083 31.9049 33.9083 31.85C33.9083 29.9261 35.5178 28.3167 37.4417 28.3167C37.4967 28.3167 37.5286 28.3357 37.5465 28.3536C37.5643 28.3714 37.5833 28.4034 37.5833 28.4583C37.5833 28.5132 37.5643 28.5452 37.5465 28.5631C37.5286 28.581 37.4966 28.6 37.4417 28.6C35.7231 28.6 34.3227 29.9766 34.2842 31.6861C34.2533 31.7809 34.2045 31.8665 34.1512 31.9246C34.0903 31.991 34.0547 31.9916 34.05 31.9916Z" stroke="black"/>
<path d="M33.3166 12.5583C33.2616 12.5583 33.2297 12.5393 33.2118 12.5215C33.1939 12.5036 33.1749 12.4716 33.1749 12.4167C33.1749 10.4928 34.7844 8.88331 36.7083 8.88331C36.7633 8.88331 36.7952 8.90234 36.8131 8.92019C36.8309 8.93805 36.8499 8.97001 36.8499 9.02496C36.8499 9.07992 36.8309 9.11187 36.8131 9.12972C36.7952 9.14758 36.7632 9.1666 36.7083 9.1666C34.9844 9.1666 33.5807 10.5516 33.5505 12.2683C33.5183 12.3992 33.4695 12.4733 33.4329 12.51C33.3988 12.544 33.3649 12.5583 33.3166 12.5583Z" stroke="black"/>
<path d="M24.9618 33.9453C24.9439 33.9631 24.9249 33.9951 24.9249 34.05C24.9249 34.1118 24.9491 34.1736 24.9883 34.2163C25.0216 34.2526 25.0721 34.2834 25.1582 34.2834L24.9618 33.9453ZM24.9618 33.9453C24.9797 33.9274 25.0116 33.9084 25.0666 33.9084M24.9618 33.9453L25.0666 33.9084M25.0666 33.9084C26.9905 33.9084 28.5999 35.5179 28.5999 37.4418M25.0666 33.9084L28.5999 37.4418M28.5999 37.4418C28.5999 37.4967 28.5808 37.5287 28.563 37.5465M28.5999 37.4418L28.563 37.5465M28.563 37.5465C28.5451 37.5644 28.5132 37.5834 28.4582 37.5834M28.563 37.5465L28.4582 37.5834M28.4582 37.5834C28.4032 37.5834 28.3713 37.5644 28.3535 37.5465M28.4582 37.5834L28.3535 37.5465M28.3535 37.5465C28.3356 37.5287 28.3166 37.4967 28.3166 37.4418M28.3535 37.5465L28.3166 37.4418M28.3166 37.4418C28.3166 35.699 26.9011 34.2835 25.1583 34.2834L28.3166 37.4418Z" stroke="black"/>
<path d="M7.74162 16.775C7.68665 16.775 7.65471 16.7559 7.63685 16.7381C7.61899 16.7202 7.59998 16.6883 7.59998 16.6333C7.59998 14.7094 9.20946 13.1 11.1334 13.1C11.1883 13.1 11.2203 13.119 11.2381 13.1368C11.256 13.1547 11.275 13.1866 11.275 13.2416C11.275 13.2965 11.256 13.3285 11.2381 13.3463C11.2202 13.3642 11.1883 13.3832 11.1334 13.3832C9.41471 13.3832 8.01429 14.7599 7.97583 16.4693C7.94494 16.5642 7.89611 16.6498 7.84284 16.708C7.78197 16.7744 7.74637 16.775 7.74162 16.775Z" stroke="black"/>
<path d="M15.0618 8.92028C15.0439 8.93813 15.0249 8.97008 15.0249 9.02504C15.0249 9.08676 15.0491 9.14859 15.0883 9.19133C15.1215 9.22759 15.1721 9.25841 15.2583 9.25845L15.0618 8.92028ZM15.0618 8.92028C15.0796 8.90242 15.1116 8.8834 15.1665 8.8834M15.0618 8.92028L15.1665 8.8834M15.1665 8.8834C17.0904 8.8834 18.6999 10.4929 18.6999 12.4168M15.1665 8.8834L18.6999 12.4168M18.6999 12.4168C18.6999 12.4717 18.6809 12.5037 18.663 12.5215M18.6999 12.4168L18.663 12.5215M18.663 12.5215C18.6452 12.5394 18.6132 12.5584 18.5583 12.5584M18.663 12.5215L18.5583 12.5584M18.5583 12.5584C18.5033 12.5584 18.4714 12.5394 18.4535 12.5215M18.5583 12.5584L18.4535 12.5215M18.4535 12.5215C18.4357 12.5037 18.4166 12.4717 18.4166 12.4168M18.4535 12.5215L18.4166 12.4168M18.4166 12.4168C18.4166 10.674 17.0011 9.2585 15.2584 9.25845L18.4166 12.4168Z" stroke="black"/>
<path d="M13.7917 25.8L15.1666 25.8917C15.1666 26.625 14.9833 27.2666 14.6167 27.725C14.25 28.1833 13.7917 28.4583 13.0583 28.6417C12.2334 28.825 11.4084 28.7334 10.7667 28.3667C10.0334 27.9084 9.57502 27.2667 9.30008 26.2583C9.02515 25.25 9.02506 24.3333 9.48344 23.6C9.85014 22.8667 10.4918 22.4083 11.4084 22.1333C12.1418 21.95 12.8751 21.95 13.5168 22.3167C13.8835 22.5 14.1585 22.8667 14.5252 23.325L13.2418 23.875C13.0584 23.6 12.8751 23.325 12.6001 23.2334C12.3251 23.1417 11.9585 23.05 11.6835 23.1417C11.2252 23.2334 10.8585 23.5084 10.6751 23.9667C10.4918 24.425 10.4918 24.975 10.6751 25.7083C10.8585 26.5333 11.2251 27.0833 11.5918 27.2666C11.9585 27.5417 12.4168 27.6334 12.8752 27.45C13.2419 27.3583 13.5168 27.175 13.7002 26.9C13.7 26.625 13.7917 26.2583 13.7917 25.8Z" fill="white"/>
<path d="M16.725 27.45L15.075 21.125L16.3584 20.7583L17 23.2333L19.475 22.5916L18.8334 20.1167L20.1167 19.75L21.8584 26.075L20.575 26.4417L19.8417 23.6917L17.3667 24.3333L18.1 27.0833L16.725 27.45Z" fill="white"/>
<path d="M23.1417 25.7083L21.4 19.3833L22.6834 19.0166L24.4251 25.3416L23.1417 25.7083Z" fill="white"/>
<path d="M25.6167 25.0667L23.875 18.7417L25.8917 18.1917C26.625 18.0084 27.1751 17.9167 27.45 17.9167C27.8167 17.9167 28.1833 18.0084 28.55 18.2834C28.9167 18.5584 29.1 18.925 29.2833 19.3834C29.375 19.7501 29.375 20.1167 29.375 20.3918C29.2833 20.6668 29.1917 20.9417 29.0083 21.1251C28.825 21.3084 28.6416 21.4918 28.4583 21.5834C28.1833 21.7667 27.725 21.8584 27.175 22.0417L26.35 22.225L26.9916 24.6083L25.6167 25.0667ZM25.4333 19.475L25.8916 21.3084L26.6249 21.125C27.0832 21.0333 27.4499 20.85 27.6333 20.7583C27.8166 20.6666 27.9083 20.4833 27.9083 20.2999C28 20.1166 28 19.9332 27.9083 19.75C27.8166 19.4749 27.7249 19.3833 27.5416 19.2C27.3582 19.1083 27.1749 19.0166 26.9916 19.0166C26.8083 19.0166 26.5333 19.1083 26.075 19.2L25.4333 19.475Z" fill="white"/>
<path d="M30.5667 21.4917L31.7584 21.0334C31.9418 21.4001 32.2168 21.6751 32.4918 21.8584C32.7668 21.9501 33.1334 22.0418 33.5001 21.8584C33.8668 21.7667 34.2334 21.5834 34.3251 21.3084C34.5084 21.0334 34.5084 20.8501 34.5084 20.5751C34.5084 20.3918 34.4168 20.3001 34.2334 20.2084C34.1417 20.2084 34.0501 20.2084 33.775 20.2084C33.5917 20.2084 33.2251 20.2084 32.675 20.2084C31.9417 20.2084 31.3916 20.1167 31.025 19.9334C30.5667 19.6584 30.2 19.2917 30.1084 18.8334C30.0167 18.4667 30.0167 18.1917 30.1084 17.825C30.2 17.4583 30.3834 17.1834 30.75 17C31.025 16.725 31.4833 16.5417 31.9417 16.4501C32.7667 16.2667 33.4083 16.2667 33.8667 16.4501C34.325 16.7251 34.6917 17.0917 34.8751 17.6418L33.5917 18.0085C33.4083 17.7334 33.225 17.4585 33.0417 17.3668C32.8584 17.2751 32.4918 17.2751 32.2167 17.3668C31.85 17.4585 31.5751 17.6419 31.3917 17.8251C31.3001 17.9168 31.2084 18.1001 31.3001 18.2834C31.3001 18.4668 31.4834 18.5584 31.5751 18.6501C31.7584 18.7418 32.2167 18.7418 32.8585 18.7418C33.5002 18.7418 34.0502 18.7418 34.3251 18.8335C34.6918 18.9251 34.9667 19.0168 35.2418 19.2917C35.5168 19.4751 35.7001 19.8417 35.7917 20.2084C35.8834 20.5751 35.8834 20.9417 35.7917 21.3084C35.7001 21.6751 35.425 21.9501 35.1501 22.2251C34.7834 22.5001 34.4168 22.6835 33.8667 22.8667C33.0417 23.0501 32.4001 23.0501 31.85 22.7751C31.3001 22.6833 30.8417 22.225 30.5667 21.4917Z" fill="white"/>
</g>
<defs>
<clipPath id="clip0_18_700">
<rect width="44" height="44" fill="white" transform="translate(0.5 0.5)"/>
</clipPath>
</defs>
</svg>
